<svg version="1.1" xmlns="http://www.w3.org/2000/svg" x="0px" y="0px"
	 width="20px" height="20px" viewBox="0 0 62.808 62.808"
	 xml:space="preserve">
<g>
	<g>
		<path fill="#65656f" d="M55.914,54.126c-8.441-3.491-11.411-3.088-13.156-8.996c-1.745-5.907-0.939-31.278-0.939-31.278
			C37.502,6.061,17.138,1.16,12.821,0.199c-0.197-0.168-0.467-0.25-0.755-0.164c-0.031-0.006-0.051-0.01-0.051-0.01
			s0.002,0.009,0.004,0.029c-0.033,0.011-0.065,0.02-0.098,0.038c-3.699,1.831-0.696,7.899-0.27,11.253
			c-0.223,0.553-0.501,1.042-0.845,1.435C7.988,16,4.363,19.76,2.215,23.653c-2.148,3.892,2.014,6.578,4.027,14.095
			c2.013,7.519,0.67,22.554,0.67,22.554H9.33c0,0-0.134-1.879,0-18.795s11.277,5.102,13.961,13.021
			c2.686,7.922,6.712,8.592,12.485,8.19c5.772-0.404,12.217-1.611,19.064-2.283C61.685,59.765,64.354,57.617,55.914,54.126z
			 M12.447,6.925c-0.339-1.338-1.287-3.902-0.195-5.081C12.394,3.168,12.528,5.045,12.447,6.925z"/>
	</g>
</g>
</svg>
