<svg version="1.1" width="35px" height="35px" id="Capa_1" xmlns="http://www.w3.org/2000/svg" x="0px" y="0px"
	 viewBox="0 0 266.784 266.784" xml:space="preserve">
<g>
	<polygon fill="#fa0b42" points="160.059,50.776 160.059,12.086 133.059,22.607 106.059,12.086 106.059,50.776 133.059,40.256 	"/>
	<path fill="#23262d" d="M225.368,235.236l41.416,1.416l-31.41-187.176l-0.461-2.752l-53.82-21.911l-47.701,116.382L85.69,24.813L31.871,46.724
		L0,236.652l41.416-1.416l18.203-103.111l0.399,20.483l-4.385,59.614l-4.546,42.476h64.783l17.521-31.845l17.521,31.845h64.783
		l-4.547-42.476l-4.385-59.688l0.4-20.45L225.368,235.236z M196.059,108.698h-32v-12h32V108.698z"/>
</g>
</svg>
